<mxfile host="app.diagrams.net" modified="2023-05-25T02:32:44.135Z" agent="Mozilla/5.0 (Macintosh; Intel Mac OS X 10_15_7) AppleWebKit/537.36 (KHTML, like Gecko) Chrome/111.0.0.0 Safari/537.36" etag="I5zuPaUxiDyHfGbs1hvg" version="21.1.4" type="device">
  <diagram id="4CqWf9FeFTgjFNEMA2mk" name="Page-1">
    <mxGraphModel dx="954" dy="559" grid="1" gridSize="10" guides="1" tooltips="1" connect="1" arrows="1" fold="1" page="1" pageScale="1" pageWidth="827" pageHeight="1169" math="0" shadow="0">
      <root>
        <mxCell id="0" />
        <mxCell id="1" parent="0" />
        <mxCell id="9V2O-fvf8YoccE2M3YE8-1" value="外部用户" style="shape=umlActor;verticalLabelPosition=bottom;verticalAlign=top;html=1;outlineConnect=0;fillColor=#ffff88;strokeColor=#36393d;" parent="1" vertex="1">
          <mxGeometry x="80" y="160" width="30" height="60" as="geometry" />
        </mxCell>
        <mxCell id="Z5jML3NcR0-N5ByOHeR8-2" value="" style="html=1;points=[];perimeter=orthogonalPerimeter;" parent="1" vertex="1">
          <mxGeometry x="90" y="250" width="10" height="370" as="geometry" />
        </mxCell>
        <mxCell id="Z5jML3NcR0-N5ByOHeR8-3" value="FreeSWITCH" style="shape=umlLifeline;perimeter=lifelinePerimeter;whiteSpace=wrap;html=1;container=1;collapsible=0;recursiveResize=0;outlineConnect=0;size=30;fillColor=#cce5ff;strokeColor=#36393d;" parent="1" vertex="1">
          <mxGeometry x="240" y="160" width="100" height="460" as="geometry" />
        </mxCell>
        <mxCell id="Z5jML3NcR0-N5ByOHeR8-9" value="" style="html=1;points=[];perimeter=orthogonalPerimeter;" parent="Z5jML3NcR0-N5ByOHeR8-3" vertex="1">
          <mxGeometry x="45" y="90" width="10" height="50" as="geometry" />
        </mxCell>
        <mxCell id="Z5jML3NcR0-N5ByOHeR8-14" value="2. 命中拨号计划" style="edgeStyle=orthogonalEdgeStyle;html=1;align=left;spacingLeft=2;endArrow=block;rounded=0;exitX=1;exitY=0.09;exitDx=0;exitDy=0;exitPerimeter=0;" parent="Z5jML3NcR0-N5ByOHeR8-3" source="Z5jML3NcR0-N5ByOHeR8-9" edge="1">
          <mxGeometry x="-0.4907" y="10" relative="1" as="geometry">
            <mxPoint x="55" y="100" as="sourcePoint" />
            <Array as="points">
              <mxPoint x="55" y="100" />
              <mxPoint x="80" y="100" />
              <mxPoint x="80" y="120" />
            </Array>
            <mxPoint x="60" y="120" as="targetPoint" />
            <mxPoint x="1" as="offset" />
          </mxGeometry>
        </mxCell>
        <mxCell id="Z5jML3NcR0-N5ByOHeR8-18" value="" style="html=1;points=[];perimeter=orthogonalPerimeter;" parent="Z5jML3NcR0-N5ByOHeR8-3" vertex="1">
          <mxGeometry x="45" y="170" width="10" height="30" as="geometry" />
        </mxCell>
        <mxCell id="Z5jML3NcR0-N5ByOHeR8-21" value="5.1&amp;nbsp; 呼叫建立 b-leg&amp;nbsp;" style="html=1;verticalAlign=bottom;endArrow=block;rounded=0;dashed=1;" parent="Z5jML3NcR0-N5ByOHeR8-3" edge="1">
          <mxGeometry width="80" relative="1" as="geometry">
            <mxPoint x="60" y="200" as="sourcePoint" />
            <mxPoint x="450" y="200" as="targetPoint" />
          </mxGeometry>
        </mxCell>
        <mxCell id="Z5jML3NcR0-N5ByOHeR8-29" value="" style="html=1;points=[];perimeter=orthogonalPerimeter;" parent="Z5jML3NcR0-N5ByOHeR8-3" vertex="1">
          <mxGeometry x="45" y="231" width="10" height="49" as="geometry" />
        </mxCell>
        <mxCell id="Z5jML3NcR0-N5ByOHeR8-37" value="" style="html=1;points=[];perimeter=orthogonalPerimeter;" parent="Z5jML3NcR0-N5ByOHeR8-3" vertex="1">
          <mxGeometry x="45" y="300" width="10" height="160" as="geometry" />
        </mxCell>
        <mxCell id="Z5jML3NcR0-N5ByOHeR8-4" value="ESL client" style="shape=umlLifeline;perimeter=lifelinePerimeter;whiteSpace=wrap;html=1;container=1;collapsible=0;recursiveResize=0;outlineConnect=0;size=30;fillColor=#f9f7ed;strokeColor=#36393d;" parent="1" vertex="1">
          <mxGeometry x="440" y="160" width="100" height="420" as="geometry" />
        </mxCell>
        <mxCell id="Z5jML3NcR0-N5ByOHeR8-11" value="" style="html=1;points=[];perimeter=orthogonalPerimeter;" parent="Z5jML3NcR0-N5ByOHeR8-4" vertex="1">
          <mxGeometry x="45" y="130" width="10" height="40" as="geometry" />
        </mxCell>
        <mxCell id="Z5jML3NcR0-N5ByOHeR8-16" value="4. 分配示闲坐席" style="edgeStyle=orthogonalEdgeStyle;html=1;align=left;spacingLeft=2;endArrow=block;rounded=0;entryX=1;entryY=0;fillColor=#ffe6cc;strokeColor=#d79b00;" parent="Z5jML3NcR0-N5ByOHeR8-4" edge="1">
          <mxGeometry relative="1" as="geometry">
            <mxPoint x="55" y="150" as="sourcePoint" />
            <Array as="points">
              <mxPoint x="80" y="150" />
              <mxPoint x="80" y="170" />
            </Array>
            <mxPoint x="60" y="170" as="targetPoint" />
          </mxGeometry>
        </mxCell>
        <mxCell id="Z5jML3NcR0-N5ByOHeR8-32" value="" style="html=1;points=[];perimeter=orthogonalPerimeter;" parent="Z5jML3NcR0-N5ByOHeR8-4" vertex="1">
          <mxGeometry x="45" y="231" width="10" height="189" as="geometry" />
        </mxCell>
        <mxCell id="Z5jML3NcR0-N5ByOHeR8-59" value="&lt;span style=&quot;text-align: center;&quot;&gt;6.2.1 b-leg 无应答&lt;/span&gt;&lt;span style=&quot;text-align: center;&quot;&gt;自动挂断，&lt;br&gt;&lt;/span&gt;&lt;span style=&quot;font-size: 12px; text-align: center; background-color: rgb(248, 249, 250);&quot;&gt;回到步骤4重新执行，分配&lt;br&gt;新的接待坐席&lt;/span&gt;" style="edgeStyle=orthogonalEdgeStyle;html=1;align=left;spacingLeft=2;endArrow=block;rounded=0;entryX=0.9;entryY=0.577;strokeColor=#FFCC99;entryDx=0;entryDy=0;entryPerimeter=0;" parent="Z5jML3NcR0-N5ByOHeR8-4" target="Z5jML3NcR0-N5ByOHeR8-32" edge="1">
          <mxGeometry relative="1" as="geometry">
            <mxPoint x="55" y="300" as="sourcePoint" />
            <Array as="points">
              <mxPoint x="85" y="300" />
              <mxPoint x="85" y="340" />
            </Array>
            <mxPoint x="60" y="320" as="targetPoint" />
          </mxGeometry>
        </mxCell>
        <mxCell id="Z5jML3NcR0-N5ByOHeR8-5" value="坐席" style="shape=umlActor;verticalLabelPosition=bottom;verticalAlign=top;html=1;outlineConnect=0;fillColor=#ffcccc;strokeColor=#36393d;" parent="1" vertex="1">
          <mxGeometry x="680" y="160" width="30" height="60" as="geometry" />
        </mxCell>
        <mxCell id="Z5jML3NcR0-N5ByOHeR8-8" value="1. 呼入&lt;br&gt;(a-leg)" style="html=1;verticalAlign=bottom;endArrow=block;rounded=0;exitX=1.1;exitY=0.036;exitDx=0;exitDy=0;exitPerimeter=0;fillColor=#ffff88;strokeColor=#36393d;" parent="1" source="Z5jML3NcR0-N5ByOHeR8-2" target="Z5jML3NcR0-N5ByOHeR8-9" edge="1">
          <mxGeometry width="80" relative="1" as="geometry">
            <mxPoint x="110" y="260" as="sourcePoint" />
            <mxPoint x="280" y="259" as="targetPoint" />
          </mxGeometry>
        </mxCell>
        <mxCell id="Z5jML3NcR0-N5ByOHeR8-10" value="3. esl outbound" style="html=1;verticalAlign=bottom;endArrow=block;rounded=0;exitX=1;exitY=0.89;exitDx=0;exitDy=0;exitPerimeter=0;" parent="1" source="Z5jML3NcR0-N5ByOHeR8-9" edge="1">
          <mxGeometry width="80" relative="1" as="geometry">
            <mxPoint x="300" y="270" as="sourcePoint" />
            <mxPoint x="480" y="295" as="targetPoint" />
          </mxGeometry>
        </mxCell>
        <mxCell id="Z5jML3NcR0-N5ByOHeR8-19" value="5. originate 指定 uuid 呼叫坐席" style="html=1;verticalAlign=bottom;endArrow=block;entryX=1;entryY=0;rounded=0;" parent="1" target="Z5jML3NcR0-N5ByOHeR8-18" edge="1">
          <mxGeometry relative="1" as="geometry">
            <mxPoint x="480" y="330" as="sourcePoint" />
          </mxGeometry>
        </mxCell>
        <mxCell id="Z5jML3NcR0-N5ByOHeR8-22" value="" style="html=1;points=[];perimeter=orthogonalPerimeter;" parent="1" vertex="1">
          <mxGeometry x="690" y="250" width="10" height="370" as="geometry" />
        </mxCell>
        <mxCell id="Z5jML3NcR0-N5ByOHeR8-30" value="" style="html=1;verticalAlign=bottom;endArrow=block;rounded=0;" parent="1" edge="1">
          <mxGeometry relative="1" as="geometry">
            <mxPoint x="480" y="391" as="sourcePoint" />
            <mxPoint x="300" y="390" as="targetPoint" />
          </mxGeometry>
        </mxCell>
        <mxCell id="Z5jML3NcR0-N5ByOHeR8-33" value="6. inbound 监听 b-leg 应答" style="edgeLabel;html=1;align=center;verticalAlign=middle;resizable=0;points=[];" parent="Z5jML3NcR0-N5ByOHeR8-30" vertex="1" connectable="0">
          <mxGeometry x="-0.0919" y="-1" relative="1" as="geometry">
            <mxPoint y="-10" as="offset" />
          </mxGeometry>
        </mxCell>
        <mxCell id="Z5jML3NcR0-N5ByOHeR8-31" value="6.1 通知 b-leg 状态&lt;br&gt;(振铃/应答/挂断)&amp;nbsp;" style="html=1;verticalAlign=bottom;endArrow=open;dashed=1;endSize=8;rounded=0;" parent="1" edge="1">
          <mxGeometry relative="1" as="geometry">
            <mxPoint x="480" y="440" as="targetPoint" />
            <mxPoint x="300" y="440" as="sourcePoint" />
          </mxGeometry>
        </mxCell>
        <mxCell id="Z5jML3NcR0-N5ByOHeR8-42" value="6.2.2 b-leg 应答，&lt;br&gt;answer 应答 a-leg" style="html=1;verticalAlign=bottom;endArrow=block;rounded=0;" parent="1" edge="1">
          <mxGeometry width="80" relative="1" as="geometry">
            <mxPoint x="480" y="530" as="sourcePoint" />
            <mxPoint x="300" y="530" as="targetPoint" />
          </mxGeometry>
        </mxCell>
        <mxCell id="Z5jML3NcR0-N5ByOHeR8-49" value="" style="endArrow=classic;html=1;rounded=0;exitX=-0.2;exitY=0.958;exitDx=0;exitDy=0;exitPerimeter=0;" parent="1" source="Z5jML3NcR0-N5ByOHeR8-32" edge="1">
          <mxGeometry width="50" height="50" relative="1" as="geometry">
            <mxPoint x="390" y="640" as="sourcePoint" />
            <mxPoint x="300" y="572" as="targetPoint" />
          </mxGeometry>
        </mxCell>
        <mxCell id="Z5jML3NcR0-N5ByOHeR8-50" value="7. uuid_bridge 桥接 a-leg b-leg" style="edgeLabel;html=1;align=center;verticalAlign=middle;resizable=0;points=[];" parent="Z5jML3NcR0-N5ByOHeR8-49" vertex="1" connectable="0">
          <mxGeometry x="0.123" y="1" relative="1" as="geometry">
            <mxPoint x="20" y="-13" as="offset" />
          </mxGeometry>
        </mxCell>
        <mxCell id="Z5jML3NcR0-N5ByOHeR8-53" value="" style="endArrow=classic;startArrow=classic;html=1;rounded=0;exitX=1.1;exitY=0.984;exitDx=0;exitDy=0;exitPerimeter=0;" parent="1" source="Z5jML3NcR0-N5ByOHeR8-2" edge="1">
          <mxGeometry width="50" height="50" relative="1" as="geometry">
            <mxPoint x="180" y="640" as="sourcePoint" />
            <mxPoint x="280" y="614" as="targetPoint" />
          </mxGeometry>
        </mxCell>
        <mxCell id="Z5jML3NcR0-N5ByOHeR8-55" value="8.1 a-leg rtp 媒体传输&amp;nbsp;" style="edgeLabel;html=1;align=center;verticalAlign=middle;resizable=0;points=[];" parent="Z5jML3NcR0-N5ByOHeR8-53" vertex="1" connectable="0">
          <mxGeometry x="0.1397" y="-1" relative="1" as="geometry">
            <mxPoint x="-3" y="-15" as="offset" />
          </mxGeometry>
        </mxCell>
        <mxCell id="Z5jML3NcR0-N5ByOHeR8-54" value="8.2 b-leg rtp 媒体传输" style="endArrow=classic;startArrow=classic;html=1;rounded=0;exitX=1.4;exitY=0.956;exitDx=0;exitDy=0;exitPerimeter=0;entryX=-0.1;entryY=0.984;entryDx=0;entryDy=0;entryPerimeter=0;" parent="1" source="Z5jML3NcR0-N5ByOHeR8-37" target="Z5jML3NcR0-N5ByOHeR8-22" edge="1">
          <mxGeometry x="-0.4822" y="13" width="50" height="50" relative="1" as="geometry">
            <mxPoint x="410" y="660" as="sourcePoint" />
            <mxPoint x="460" y="610" as="targetPoint" />
            <mxPoint as="offset" />
          </mxGeometry>
        </mxCell>
        <mxCell id="Z5jML3NcR0-N5ByOHeR8-60" value="FreeSWITCH" style="shape=umlLifeline;perimeter=lifelinePerimeter;whiteSpace=wrap;html=1;container=1;collapsible=0;recursiveResize=0;outlineConnect=0;size=30;fillColor=#cce5ff;strokeColor=#36393d;" parent="1" vertex="1">
          <mxGeometry x="450" y="770" width="100" height="355" as="geometry" />
        </mxCell>
        <mxCell id="Z5jML3NcR0-N5ByOHeR8-61" value="" style="html=1;points=[];perimeter=orthogonalPerimeter;" parent="Z5jML3NcR0-N5ByOHeR8-60" vertex="1">
          <mxGeometry x="45" y="90" width="10" height="60" as="geometry" />
        </mxCell>
        <mxCell id="Z5jML3NcR0-N5ByOHeR8-62" value="" style="html=1;points=[];perimeter=orthogonalPerimeter;" parent="Z5jML3NcR0-N5ByOHeR8-60" vertex="1">
          <mxGeometry x="45" y="190" width="10" height="100" as="geometry" />
        </mxCell>
        <mxCell id="Z5jML3NcR0-N5ByOHeR8-63" value="" style="edgeStyle=orthogonalEdgeStyle;html=1;align=left;spacingLeft=2;endArrow=block;rounded=0;strokeColor=#000000;" parent="Z5jML3NcR0-N5ByOHeR8-60" edge="1">
          <mxGeometry relative="1" as="geometry">
            <mxPoint x="60" y="115" as="sourcePoint" />
            <Array as="points">
              <mxPoint x="90" y="115" />
              <mxPoint x="90" y="140" />
              <mxPoint x="55" y="140" />
            </Array>
            <mxPoint x="55" y="140" as="targetPoint" />
          </mxGeometry>
        </mxCell>
        <mxCell id="Z5jML3NcR0-N5ByOHeR8-64" value="3. 路由命中拨号计划" style="edgeLabel;html=1;align=center;verticalAlign=middle;resizable=0;points=[];" parent="Z5jML3NcR0-N5ByOHeR8-63" vertex="1" connectable="0">
          <mxGeometry x="-0.1556" y="2" relative="1" as="geometry">
            <mxPoint x="29" y="2" as="offset" />
          </mxGeometry>
        </mxCell>
        <mxCell id="Z5jML3NcR0-N5ByOHeR8-65" value="" style="html=1;points=[];perimeter=orthogonalPerimeter;direction=west;" parent="Z5jML3NcR0-N5ByOHeR8-60" vertex="1">
          <mxGeometry x="45" y="320" width="10" height="30" as="geometry" />
        </mxCell>
        <mxCell id="Z5jML3NcR0-N5ByOHeR8-66" value="ESL client" style="shape=umlLifeline;perimeter=lifelinePerimeter;whiteSpace=wrap;html=1;container=1;collapsible=0;recursiveResize=0;outlineConnect=0;size=30;fillColor=#f9f7ed;strokeColor=#36393d;" parent="1" vertex="1">
          <mxGeometry x="230" y="770" width="100" height="320" as="geometry" />
        </mxCell>
        <mxCell id="Z5jML3NcR0-N5ByOHeR8-67" value="" style="html=1;points=[];perimeter=orthogonalPerimeter;" parent="Z5jML3NcR0-N5ByOHeR8-66" vertex="1">
          <mxGeometry x="45" y="90" width="10" height="20" as="geometry" />
        </mxCell>
        <mxCell id="Z5jML3NcR0-N5ByOHeR8-68" value="" style="html=1;points=[];perimeter=orthogonalPerimeter;" parent="Z5jML3NcR0-N5ByOHeR8-66" vertex="1">
          <mxGeometry x="45" y="130" width="10" height="80" as="geometry" />
        </mxCell>
        <mxCell id="Z5jML3NcR0-N5ByOHeR8-69" value="7. play_and_detect_speech&lt;br&gt;放音并 ASR 识别用户语音" style="html=1;verticalAlign=bottom;endArrow=block;rounded=0;strokeColor=#000000;" parent="Z5jML3NcR0-N5ByOHeR8-66" edge="1">
          <mxGeometry width="80" relative="1" as="geometry">
            <mxPoint x="60" y="200" as="sourcePoint" />
            <mxPoint x="260" y="200" as="targetPoint" />
          </mxGeometry>
        </mxCell>
        <mxCell id="Z5jML3NcR0-N5ByOHeR8-70" value="" style="html=1;points=[];perimeter=orthogonalPerimeter;" parent="Z5jML3NcR0-N5ByOHeR8-66" vertex="1">
          <mxGeometry x="45" y="280" width="10" height="50" as="geometry" />
        </mxCell>
        <mxCell id="Z5jML3NcR0-N5ByOHeR8-71" value="13. 返回对话文本" style="html=1;verticalAlign=bottom;endArrow=block;rounded=0;strokeColor=#000000;dashed=1;exitX=1.1;exitY=0.79;exitDx=0;exitDy=0;exitPerimeter=0;" parent="Z5jML3NcR0-N5ByOHeR8-66" source="Z5jML3NcR0-N5ByOHeR8-89" edge="1">
          <mxGeometry width="80" relative="1" as="geometry">
            <mxPoint x="-110" y="320" as="sourcePoint" />
            <mxPoint x="40" y="320" as="targetPoint" />
          </mxGeometry>
        </mxCell>
        <mxCell id="Z5jML3NcR0-N5ByOHeR8-72" value="目标用户" style="shape=umlActor;verticalLabelPosition=bottom;verticalAlign=top;html=1;outlineConnect=0;fillColor=#ffcccc;strokeColor=#36393d;" parent="1" vertex="1">
          <mxGeometry x="740" y="770" width="30" height="60" as="geometry" />
        </mxCell>
        <mxCell id="Z5jML3NcR0-N5ByOHeR8-73" value="1. originate 呼叫目标用户" style="html=1;verticalAlign=bottom;endArrow=block;rounded=0;exitX=1.1;exitY=0.11;exitDx=0;exitDy=0;exitPerimeter=0;fillColor=#ffff88;strokeColor=#36393d;" parent="1" source="Z5jML3NcR0-N5ByOHeR8-67" target="Z5jML3NcR0-N5ByOHeR8-61" edge="1">
          <mxGeometry width="80" relative="1" as="geometry">
            <mxPoint x="320" y="873.32" as="sourcePoint" />
            <mxPoint x="499" y="869" as="targetPoint" />
          </mxGeometry>
        </mxCell>
        <mxCell id="Z5jML3NcR0-N5ByOHeR8-74" value="" style="html=1;points=[];perimeter=orthogonalPerimeter;" parent="1" vertex="1">
          <mxGeometry x="750" y="860" width="10" height="250" as="geometry" />
        </mxCell>
        <mxCell id="Z5jML3NcR0-N5ByOHeR8-75" value="9. rtp 媒体传输" style="endArrow=classic;startArrow=classic;html=1;rounded=0;entryX=-0.5;entryY=0.558;entryDx=0;entryDy=0;entryPerimeter=0;" parent="1" target="Z5jML3NcR0-N5ByOHeR8-74" edge="1">
          <mxGeometry x="-0.4256" y="10" width="50" height="50" relative="1" as="geometry">
            <mxPoint x="510" y="1000" as="sourcePoint" />
            <mxPoint x="540" y="1220" as="targetPoint" />
            <mxPoint as="offset" />
          </mxGeometry>
        </mxCell>
        <mxCell id="Z5jML3NcR0-N5ByOHeR8-76" value="&amp;nbsp; 2. 外部呼叫建立会话" style="html=1;verticalAlign=bottom;endArrow=block;rounded=0;dashed=1;exitX=0.9;exitY=0.15;exitDx=0;exitDy=0;exitPerimeter=0;entryX=0;entryY=0.023;entryDx=0;entryDy=0;entryPerimeter=0;" parent="1" source="Z5jML3NcR0-N5ByOHeR8-61" target="Z5jML3NcR0-N5ByOHeR8-74" edge="1">
          <mxGeometry width="80" relative="1" as="geometry">
            <mxPoint x="630" y="820" as="sourcePoint" />
            <mxPoint x="909" y="970" as="targetPoint" />
          </mxGeometry>
        </mxCell>
        <mxCell id="Z5jML3NcR0-N5ByOHeR8-77" value="4. esl outbound&amp;nbsp;" style="html=1;verticalAlign=bottom;endArrow=block;rounded=0;strokeColor=#000000;exitX=-0.1;exitY=0.95;exitDx=0;exitDy=0;exitPerimeter=0;" parent="1" source="Z5jML3NcR0-N5ByOHeR8-61" edge="1">
          <mxGeometry width="80" relative="1" as="geometry">
            <mxPoint x="180" y="990" as="sourcePoint" />
            <mxPoint x="290" y="917" as="targetPoint" />
          </mxGeometry>
        </mxCell>
        <mxCell id="Z5jML3NcR0-N5ByOHeR8-78" value="MRCP 服务器" style="shape=umlLifeline;perimeter=lifelinePerimeter;whiteSpace=wrap;html=1;container=1;collapsible=0;recursiveResize=0;outlineConnect=0;size=30;fillColor=#d5e8d4;strokeColor=#82b366;" parent="1" vertex="1">
          <mxGeometry x="610" y="770" width="100" height="280" as="geometry" />
        </mxCell>
        <mxCell id="Z5jML3NcR0-N5ByOHeR8-79" value="" style="html=1;points=[];perimeter=orthogonalPerimeter;" parent="Z5jML3NcR0-N5ByOHeR8-78" vertex="1">
          <mxGeometry x="45" y="190" width="10" height="20" as="geometry" />
        </mxCell>
        <mxCell id="Z5jML3NcR0-N5ByOHeR8-80" value="" style="html=1;points=[];perimeter=orthogonalPerimeter;" parent="Z5jML3NcR0-N5ByOHeR8-78" vertex="1">
          <mxGeometry x="45" y="250" width="10" height="20" as="geometry" />
        </mxCell>
        <mxCell id="Z5jML3NcR0-N5ByOHeR8-81" value="" style="endArrow=classic;startArrow=classic;html=1;rounded=0;strokeColor=#97D077;entryX=0;entryY=0.4;entryDx=0;entryDy=0;entryPerimeter=0;exitX=0.9;exitY=0.114;exitDx=0;exitDy=0;exitPerimeter=0;" parent="1" source="Z5jML3NcR0-N5ByOHeR8-62" target="Z5jML3NcR0-N5ByOHeR8-79" edge="1">
          <mxGeometry width="50" height="50" relative="1" as="geometry">
            <mxPoint x="510" y="970" as="sourcePoint" />
            <mxPoint x="555" y="930" as="targetPoint" />
          </mxGeometry>
        </mxCell>
        <mxCell id="Z5jML3NcR0-N5ByOHeR8-82" value="8. TTS 语音合成" style="edgeLabel;html=1;align=center;verticalAlign=middle;resizable=0;points=[];" parent="Z5jML3NcR0-N5ByOHeR8-81" vertex="1" connectable="0">
          <mxGeometry x="-0.0874" y="1" relative="1" as="geometry">
            <mxPoint x="7" y="-7" as="offset" />
          </mxGeometry>
        </mxCell>
        <mxCell id="Z5jML3NcR0-N5ByOHeR8-83" value="" style="endArrow=classic;startArrow=classic;html=1;rounded=0;strokeColor=#B9E0A5;entryX=-0.2;entryY=0.417;entryDx=0;entryDy=0;entryPerimeter=0;fillColor=#cdeb8b;" parent="1" target="Z5jML3NcR0-N5ByOHeR8-80" edge="1">
          <mxGeometry width="50" height="50" relative="1" as="geometry">
            <mxPoint x="510" y="1030" as="sourcePoint" />
            <mxPoint x="620" y="1020" as="targetPoint" />
          </mxGeometry>
        </mxCell>
        <mxCell id="Z5jML3NcR0-N5ByOHeR8-84" value="10.ASR 语音识别" style="edgeLabel;html=1;align=center;verticalAlign=middle;resizable=0;points=[];" parent="Z5jML3NcR0-N5ByOHeR8-83" vertex="1" connectable="0">
          <mxGeometry x="0.0541" y="-1" relative="1" as="geometry">
            <mxPoint y="-9" as="offset" />
          </mxGeometry>
        </mxCell>
        <mxCell id="Z5jML3NcR0-N5ByOHeR8-85" value="11. outbound 监听&lt;br&gt;&amp;nbsp;CHANNEL_EXECUTE_COMPLETE&lt;br&gt;获取 ASR 识别结果&amp;nbsp;" style="html=1;verticalAlign=bottom;endArrow=block;rounded=0;strokeColor=#000000;entryX=1.2;entryY=0.038;entryDx=0;entryDy=0;entryPerimeter=0;exitX=0;exitY=0.92;exitDx=0;exitDy=0;exitPerimeter=0;" parent="1" source="Z5jML3NcR0-N5ByOHeR8-62" target="Z5jML3NcR0-N5ByOHeR8-70" edge="1">
          <mxGeometry width="80" relative="1" as="geometry">
            <mxPoint x="480" y="1052" as="sourcePoint" />
            <mxPoint x="360" y="1050" as="targetPoint" />
          </mxGeometry>
        </mxCell>
        <mxCell id="Z5jML3NcR0-N5ByOHeR8-86" value="14. play_and_detect_speech&lt;br&gt;放音并 ASR 识别用户语音" style="html=1;verticalAlign=bottom;endArrow=block;rounded=0;strokeColor=#000000;dashed=1;" parent="1" edge="1">
          <mxGeometry width="80" relative="1" as="geometry">
            <mxPoint x="290" y="1100" as="sourcePoint" />
            <mxPoint x="490" y="1100" as="targetPoint" />
          </mxGeometry>
        </mxCell>
        <mxCell id="Z5jML3NcR0-N5ByOHeR8-87" value="AI 机器人" style="shape=umlLifeline;perimeter=lifelinePerimeter;whiteSpace=wrap;html=1;container=1;collapsible=0;recursiveResize=0;outlineConnect=0;size=30;fillColor=#ffcccc;strokeColor=#36393d;" parent="1" vertex="1">
          <mxGeometry x="90" y="770" width="100" height="320" as="geometry" />
        </mxCell>
        <mxCell id="Z5jML3NcR0-N5ByOHeR8-88" value="" style="html=1;points=[];perimeter=orthogonalPerimeter;" parent="Z5jML3NcR0-N5ByOHeR8-87" vertex="1">
          <mxGeometry x="45" y="150" width="10" height="50" as="geometry" />
        </mxCell>
        <mxCell id="Z5jML3NcR0-N5ByOHeR8-89" value="" style="html=1;points=[];perimeter=orthogonalPerimeter;" parent="Z5jML3NcR0-N5ByOHeR8-87" vertex="1">
          <mxGeometry x="45" y="280" width="10" height="50" as="geometry" />
        </mxCell>
        <mxCell id="Z5jML3NcR0-N5ByOHeR8-90" value="6. 返回对话文本" style="html=1;verticalAlign=bottom;endArrow=block;rounded=0;strokeColor=#000000;" parent="Z5jML3NcR0-N5ByOHeR8-87" edge="1">
          <mxGeometry width="80" relative="1" as="geometry">
            <mxPoint x="60" y="190" as="sourcePoint" />
            <mxPoint x="180" y="190" as="targetPoint" />
          </mxGeometry>
        </mxCell>
        <mxCell id="Z5jML3NcR0-N5ByOHeR8-91" value="5. 获取开场白" style="html=1;verticalAlign=bottom;endArrow=block;rounded=0;strokeColor=#000000;exitX=0;exitY=0.328;exitDx=0;exitDy=0;exitPerimeter=0;" parent="1" source="Z5jML3NcR0-N5ByOHeR8-68" edge="1">
          <mxGeometry width="80" relative="1" as="geometry">
            <mxPoint x="250" y="930" as="sourcePoint" />
            <mxPoint x="150" y="926" as="targetPoint" />
          </mxGeometry>
        </mxCell>
        <mxCell id="Z5jML3NcR0-N5ByOHeR8-92" value="12. 机器人对话" style="html=1;verticalAlign=bottom;endArrow=block;rounded=0;strokeColor=#000000;exitX=0;exitY=0.2;exitDx=0;exitDy=0;exitPerimeter=0;" parent="1" source="Z5jML3NcR0-N5ByOHeR8-70" edge="1">
          <mxGeometry width="80" relative="1" as="geometry">
            <mxPoint x="275" y="1050.24" as="sourcePoint" />
            <mxPoint x="150" y="1060" as="targetPoint" />
          </mxGeometry>
        </mxCell>
        <mxCell id="uOPiIv73OG2ECovDqi-G-1" value="外部用户" style="shape=umlActor;verticalLabelPosition=bottom;verticalAlign=top;html=1;outlineConnect=0;fillColor=#ffff88;strokeColor=#36393d;" vertex="1" parent="1">
          <mxGeometry x="19" y="1240" width="30" height="60" as="geometry" />
        </mxCell>
        <mxCell id="uOPiIv73OG2ECovDqi-G-2" value="" style="html=1;points=[];perimeter=orthogonalPerimeter;" vertex="1" parent="1">
          <mxGeometry x="29" y="1330" width="10" height="450" as="geometry" />
        </mxCell>
        <mxCell id="uOPiIv73OG2ECovDqi-G-3" value="FreeSWITCH" style="shape=umlLifeline;perimeter=lifelinePerimeter;whiteSpace=wrap;html=1;container=1;collapsible=0;recursiveResize=0;outlineConnect=0;size=30;fillColor=#cce5ff;strokeColor=#36393d;" vertex="1" parent="1">
          <mxGeometry x="389" y="1240" width="100" height="460" as="geometry" />
        </mxCell>
        <mxCell id="uOPiIv73OG2ECovDqi-G-4" value="" style="html=1;points=[];perimeter=orthogonalPerimeter;" vertex="1" parent="uOPiIv73OG2ECovDqi-G-3">
          <mxGeometry x="40" y="170" width="10" height="50" as="geometry" />
        </mxCell>
        <mxCell id="uOPiIv73OG2ECovDqi-G-5" value="4. 命中拨号计划" style="edgeStyle=orthogonalEdgeStyle;html=1;align=left;spacingLeft=2;endArrow=block;rounded=0;exitX=1;exitY=0.09;exitDx=0;exitDy=0;exitPerimeter=0;" edge="1" parent="uOPiIv73OG2ECovDqi-G-3" source="uOPiIv73OG2ECovDqi-G-4">
          <mxGeometry x="-0.4907" y="10" relative="1" as="geometry">
            <mxPoint x="50" y="180" as="sourcePoint" />
            <Array as="points">
              <mxPoint x="50" y="180" />
              <mxPoint x="75" y="180" />
              <mxPoint x="75" y="200" />
            </Array>
            <mxPoint x="55" y="200" as="targetPoint" />
            <mxPoint x="1" as="offset" />
          </mxGeometry>
        </mxCell>
        <mxCell id="uOPiIv73OG2ECovDqi-G-6" value="" style="html=1;points=[];perimeter=orthogonalPerimeter;" vertex="1" parent="uOPiIv73OG2ECovDqi-G-3">
          <mxGeometry x="40" y="250" width="10" height="20" as="geometry" />
        </mxCell>
        <mxCell id="uOPiIv73OG2ECovDqi-G-7" value="" style="html=1;points=[];perimeter=orthogonalPerimeter;" vertex="1" parent="uOPiIv73OG2ECovDqi-G-3">
          <mxGeometry x="40" y="311" width="10" height="49" as="geometry" />
        </mxCell>
        <mxCell id="uOPiIv73OG2ECovDqi-G-8" value="" style="html=1;points=[];perimeter=orthogonalPerimeter;" vertex="1" parent="uOPiIv73OG2ECovDqi-G-3">
          <mxGeometry x="40" y="380" width="10" height="160" as="geometry" />
        </mxCell>
        <mxCell id="uOPiIv73OG2ECovDqi-G-9" value="ESL client" style="shape=umlLifeline;perimeter=lifelinePerimeter;whiteSpace=wrap;html=1;container=1;collapsible=0;recursiveResize=0;outlineConnect=0;size=30;fillColor=#f9f7ed;strokeColor=#36393d;" vertex="1" parent="1">
          <mxGeometry x="589" y="1240" width="100" height="420" as="geometry" />
        </mxCell>
        <mxCell id="uOPiIv73OG2ECovDqi-G-10" value="" style="html=1;points=[];perimeter=orthogonalPerimeter;" vertex="1" parent="uOPiIv73OG2ECovDqi-G-9">
          <mxGeometry x="45" y="210" width="10" height="40" as="geometry" />
        </mxCell>
        <mxCell id="uOPiIv73OG2ECovDqi-G-11" value="6. 分配示闲坐席" style="edgeStyle=orthogonalEdgeStyle;html=1;align=left;spacingLeft=2;endArrow=block;rounded=0;entryX=1;entryY=0;fillColor=#ffe6cc;strokeColor=#d79b00;" edge="1" parent="uOPiIv73OG2ECovDqi-G-9">
          <mxGeometry relative="1" as="geometry">
            <mxPoint x="60" y="230" as="sourcePoint" />
            <Array as="points">
              <mxPoint x="75" y="230" />
              <mxPoint x="75" y="250" />
            </Array>
            <mxPoint x="55" y="250" as="targetPoint" />
          </mxGeometry>
        </mxCell>
        <mxCell id="uOPiIv73OG2ECovDqi-G-12" value="" style="html=1;points=[];perimeter=orthogonalPerimeter;" vertex="1" parent="uOPiIv73OG2ECovDqi-G-9">
          <mxGeometry x="45" y="311" width="10" height="189" as="geometry" />
        </mxCell>
        <mxCell id="uOPiIv73OG2ECovDqi-G-13" value="&lt;span style=&quot;text-align: center;&quot;&gt;8.2.1 b-leg 无应答&lt;br&gt;&lt;/span&gt;&lt;span style=&quot;text-align: center;&quot;&gt;自动挂断，&lt;/span&gt;&lt;span style=&quot;font-size: 12px; text-align: center; background-color: rgb(248, 249, 250);&quot;&gt;回到步&lt;br&gt;骤6重新执行，分配&lt;br&gt;新的接待坐席&lt;/span&gt;" style="edgeStyle=orthogonalEdgeStyle;html=1;align=left;spacingLeft=2;endArrow=block;rounded=0;entryX=0.9;entryY=0.577;strokeColor=#FFCC99;entryDx=0;entryDy=0;entryPerimeter=0;" edge="1" parent="uOPiIv73OG2ECovDqi-G-9" target="uOPiIv73OG2ECovDqi-G-12">
          <mxGeometry relative="1" as="geometry">
            <mxPoint x="50" y="380" as="sourcePoint" />
            <Array as="points">
              <mxPoint x="80" y="380" />
              <mxPoint x="80" y="420" />
            </Array>
            <mxPoint x="55" y="400" as="targetPoint" />
          </mxGeometry>
        </mxCell>
        <mxCell id="uOPiIv73OG2ECovDqi-G-14" value="坐席" style="shape=umlActor;verticalLabelPosition=bottom;verticalAlign=top;html=1;outlineConnect=0;fillColor=#ffcccc;strokeColor=#36393d;" vertex="1" parent="1">
          <mxGeometry x="779" y="1240" width="30" height="60" as="geometry" />
        </mxCell>
        <mxCell id="uOPiIv73OG2ECovDqi-G-15" value="1. 呼入&lt;br&gt;(a-leg)" style="html=1;verticalAlign=bottom;endArrow=block;rounded=0;exitX=1.1;exitY=0.02;exitDx=0;exitDy=0;exitPerimeter=0;fillColor=#ffff88;strokeColor=#36393d;" edge="1" parent="1" source="uOPiIv73OG2ECovDqi-G-2">
          <mxGeometry width="80" relative="1" as="geometry">
            <mxPoint x="49" y="1340" as="sourcePoint" />
            <mxPoint x="259" y="1340" as="targetPoint" />
          </mxGeometry>
        </mxCell>
        <mxCell id="uOPiIv73OG2ECovDqi-G-16" value="5. esl outbound" style="html=1;verticalAlign=bottom;endArrow=block;rounded=0;exitX=1;exitY=0.89;exitDx=0;exitDy=0;exitPerimeter=0;" edge="1" parent="1" source="uOPiIv73OG2ECovDqi-G-4">
          <mxGeometry width="80" relative="1" as="geometry">
            <mxPoint x="444" y="1430" as="sourcePoint" />
            <mxPoint x="624" y="1455" as="targetPoint" />
          </mxGeometry>
        </mxCell>
        <mxCell id="uOPiIv73OG2ECovDqi-G-17" value="7. originate 指定 uuid 呼叫坐席" style="html=1;verticalAlign=bottom;endArrow=block;entryX=1;entryY=0;rounded=0;" edge="1" parent="1" target="uOPiIv73OG2ECovDqi-G-6">
          <mxGeometry relative="1" as="geometry">
            <mxPoint x="624" y="1490" as="sourcePoint" />
          </mxGeometry>
        </mxCell>
        <mxCell id="uOPiIv73OG2ECovDqi-G-18" value="" style="html=1;points=[];perimeter=orthogonalPerimeter;" vertex="1" parent="1">
          <mxGeometry x="784" y="1340" width="10" height="440" as="geometry" />
        </mxCell>
        <mxCell id="uOPiIv73OG2ECovDqi-G-19" value="" style="html=1;verticalAlign=bottom;endArrow=block;rounded=0;" edge="1" parent="1">
          <mxGeometry relative="1" as="geometry">
            <mxPoint x="624" y="1551" as="sourcePoint" />
            <mxPoint x="444" y="1550" as="targetPoint" />
          </mxGeometry>
        </mxCell>
        <mxCell id="uOPiIv73OG2ECovDqi-G-20" value="8. inbound 监听 b-leg 应答" style="edgeLabel;html=1;align=center;verticalAlign=middle;resizable=0;points=[];" vertex="1" connectable="0" parent="uOPiIv73OG2ECovDqi-G-19">
          <mxGeometry x="-0.0919" y="-1" relative="1" as="geometry">
            <mxPoint y="-10" as="offset" />
          </mxGeometry>
        </mxCell>
        <mxCell id="uOPiIv73OG2ECovDqi-G-21" value="8.1 通知 b-leg 状态&lt;br&gt;(振铃/应答/挂断)&amp;nbsp;" style="html=1;verticalAlign=bottom;endArrow=open;dashed=1;endSize=8;rounded=0;" edge="1" parent="1">
          <mxGeometry relative="1" as="geometry">
            <mxPoint x="624" y="1600" as="targetPoint" />
            <mxPoint x="444" y="1600" as="sourcePoint" />
          </mxGeometry>
        </mxCell>
        <mxCell id="uOPiIv73OG2ECovDqi-G-22" value="8.2.2 b-leg 应答，&lt;br&gt;answer 应答 a-leg" style="html=1;verticalAlign=bottom;endArrow=block;rounded=0;" edge="1" parent="1">
          <mxGeometry width="80" relative="1" as="geometry">
            <mxPoint x="624" y="1690" as="sourcePoint" />
            <mxPoint x="444" y="1690" as="targetPoint" />
          </mxGeometry>
        </mxCell>
        <mxCell id="uOPiIv73OG2ECovDqi-G-23" value="" style="endArrow=classic;html=1;rounded=0;exitX=-0.2;exitY=0.958;exitDx=0;exitDy=0;exitPerimeter=0;" edge="1" parent="1" source="uOPiIv73OG2ECovDqi-G-12">
          <mxGeometry width="50" height="50" relative="1" as="geometry">
            <mxPoint x="534" y="1800" as="sourcePoint" />
            <mxPoint x="444" y="1732" as="targetPoint" />
          </mxGeometry>
        </mxCell>
        <mxCell id="uOPiIv73OG2ECovDqi-G-24" value="9. uuid_bridge 桥接 a-leg b-leg" style="edgeLabel;html=1;align=center;verticalAlign=middle;resizable=0;points=[];" vertex="1" connectable="0" parent="uOPiIv73OG2ECovDqi-G-23">
          <mxGeometry x="0.123" y="1" relative="1" as="geometry">
            <mxPoint x="20" y="-13" as="offset" />
          </mxGeometry>
        </mxCell>
        <mxCell id="uOPiIv73OG2ECovDqi-G-25" value="" style="endArrow=classic;startArrow=classic;html=1;rounded=0;exitX=1.1;exitY=0.984;exitDx=0;exitDy=0;exitPerimeter=0;entryX=0.1;entryY=0.938;entryDx=0;entryDy=0;entryPerimeter=0;" edge="1" parent="1" source="uOPiIv73OG2ECovDqi-G-2" target="uOPiIv73OG2ECovDqi-G-8">
          <mxGeometry width="50" height="50" relative="1" as="geometry">
            <mxPoint x="119" y="1720" as="sourcePoint" />
            <mxPoint x="219" y="1694" as="targetPoint" />
          </mxGeometry>
        </mxCell>
        <mxCell id="uOPiIv73OG2ECovDqi-G-26" value="10.1 a-leg rtp 媒体传输&amp;nbsp;" style="edgeLabel;html=1;align=center;verticalAlign=middle;resizable=0;points=[];" vertex="1" connectable="0" parent="uOPiIv73OG2ECovDqi-G-25">
          <mxGeometry x="0.1397" y="-1" relative="1" as="geometry">
            <mxPoint x="57" y="-15" as="offset" />
          </mxGeometry>
        </mxCell>
        <mxCell id="uOPiIv73OG2ECovDqi-G-27" value="10.2 b-leg rtp 媒体传输" style="endArrow=classic;startArrow=classic;html=1;rounded=0;exitX=1.4;exitY=0.956;exitDx=0;exitDy=0;exitPerimeter=0;entryX=-0.1;entryY=0.984;entryDx=0;entryDy=0;entryPerimeter=0;" edge="1" parent="1" source="uOPiIv73OG2ECovDqi-G-8" target="uOPiIv73OG2ECovDqi-G-18">
          <mxGeometry x="-0.4822" y="13" width="50" height="50" relative="1" as="geometry">
            <mxPoint x="554" y="1820" as="sourcePoint" />
            <mxPoint x="604" y="1770" as="targetPoint" />
            <mxPoint as="offset" />
          </mxGeometry>
        </mxCell>
        <mxCell id="uOPiIv73OG2ECovDqi-G-28" value="OpenSIPS" style="shape=umlLifeline;perimeter=lifelinePerimeter;whiteSpace=wrap;html=1;container=1;collapsible=0;recursiveResize=0;outlineConnect=0;size=30;fillColor=#e1d5e7;strokeColor=#9673a6;" vertex="1" parent="1">
          <mxGeometry x="219" y="1240" width="100" height="290" as="geometry" />
        </mxCell>
        <mxCell id="uOPiIv73OG2ECovDqi-G-29" value="" style="html=1;points=[];perimeter=orthogonalPerimeter;" vertex="1" parent="uOPiIv73OG2ECovDqi-G-28">
          <mxGeometry x="45" y="90" width="10" height="90" as="geometry" />
        </mxCell>
        <mxCell id="uOPiIv73OG2ECovDqi-G-30" value="2. dialplan 模块&lt;br&gt;拨号计划命中" style="edgeStyle=orthogonalEdgeStyle;html=1;align=left;spacingLeft=2;endArrow=block;rounded=0;exitX=1;exitY=0.09;exitDx=0;exitDy=0;exitPerimeter=0;" edge="1" parent="uOPiIv73OG2ECovDqi-G-28" source="uOPiIv73OG2ECovDqi-G-29">
          <mxGeometry x="-0.4907" y="10" relative="1" as="geometry">
            <mxPoint x="55" y="100" as="sourcePoint" />
            <Array as="points">
              <mxPoint x="55" y="100" />
              <mxPoint x="80" y="100" />
              <mxPoint x="80" y="120" />
            </Array>
            <mxPoint x="60" y="120" as="targetPoint" />
            <mxPoint x="1" as="offset" />
          </mxGeometry>
        </mxCell>
        <mxCell id="uOPiIv73OG2ECovDqi-G-31" value="" style="html=1;points=[];perimeter=orthogonalPerimeter;" vertex="1" parent="uOPiIv73OG2ECovDqi-G-28">
          <mxGeometry x="45" y="250" width="10" height="30" as="geometry" />
        </mxCell>
        <mxCell id="uOPiIv73OG2ECovDqi-G-32" value="3.dispatcher &lt;br&gt;模块负载均衡" style="html=1;align=left;spacingLeft=2;endArrow=block;rounded=0;edgeStyle=orthogonalEdgeStyle;curved=0;rounded=0;" edge="1" parent="uOPiIv73OG2ECovDqi-G-28">
          <mxGeometry relative="1" as="geometry">
            <mxPoint x="55" y="130" as="sourcePoint" />
            <Array as="points">
              <mxPoint x="85" y="160" />
            </Array>
            <mxPoint x="60" y="160" as="targetPoint" />
          </mxGeometry>
        </mxCell>
        <mxCell id="uOPiIv73OG2ECovDqi-G-33" value="转发" style="html=1;verticalAlign=bottom;endArrow=block;edgeStyle=elbowEdgeStyle;elbow=vertical;curved=0;rounded=0;entryX=-0.2;entryY=0.2;entryDx=0;entryDy=0;entryPerimeter=0;" edge="1" parent="uOPiIv73OG2ECovDqi-G-28" target="uOPiIv73OG2ECovDqi-G-4">
          <mxGeometry width="80" relative="1" as="geometry">
            <mxPoint x="50" y="180" as="sourcePoint" />
            <mxPoint x="150" y="180" as="targetPoint" />
          </mxGeometry>
        </mxCell>
        <mxCell id="uOPiIv73OG2ECovDqi-G-34" value="" style="endArrow=classic;html=1;rounded=0;exitX=-0.2;exitY=0.55;exitDx=0;exitDy=0;exitPerimeter=0;" edge="1" parent="1" source="uOPiIv73OG2ECovDqi-G-6">
          <mxGeometry width="50" height="50" relative="1" as="geometry">
            <mxPoint x="359" y="1550" as="sourcePoint" />
            <mxPoint x="279" y="1501" as="targetPoint" />
          </mxGeometry>
        </mxCell>
        <mxCell id="uOPiIv73OG2ECovDqi-G-35" value="7.1 呼叫注册的坐席" style="edgeLabel;html=1;align=center;verticalAlign=middle;resizable=0;points=[];" vertex="1" connectable="0" parent="uOPiIv73OG2ECovDqi-G-34">
          <mxGeometry x="-0.0128" y="-1" relative="1" as="geometry">
            <mxPoint as="offset" />
          </mxGeometry>
        </mxCell>
        <mxCell id="uOPiIv73OG2ECovDqi-G-36" value="7.2&amp;nbsp; 呼叫建立 b-leg&amp;nbsp;" style="html=1;verticalAlign=bottom;endArrow=block;rounded=0;dashed=1;exitX=0.9;exitY=0.967;exitDx=0;exitDy=0;exitPerimeter=0;entryX=-0.2;entryY=0.406;entryDx=0;entryDy=0;entryPerimeter=0;" edge="1" parent="1" source="uOPiIv73OG2ECovDqi-G-31" target="uOPiIv73OG2ECovDqi-G-18">
          <mxGeometry width="80" relative="1" as="geometry">
            <mxPoint x="444" y="1520" as="sourcePoint" />
            <mxPoint x="834" y="1520" as="targetPoint" />
          </mxGeometry>
        </mxCell>
      </root>
    </mxGraphModel>
  </diagram>
</mxfile>
